<?xml version="1.0" encoding="UTF-8" standalone="no"?>
<svg
   xmlns:dc="http://purl.org/dc/elements/1.1/"
   xmlns:cc="http://creativecommons.org/ns#"
   xmlns:rdf="http://www.w3.org/1999/02/22-rdf-syntax-ns#"
   xmlns:svg="http://www.w3.org/2000/svg"
   xmlns="http://www.w3.org/2000/svg"
   id="svg837"
   fill="#000"
   y="0px"
   x="0px"
   viewBox="0 0 128 128"
   version="1.1"
   height="128"
   width="128"
   class="tw-icon__svg">
  <metadata
     id="metadata843">
    <rdf:RDF>
      <cc:Work
         rdf:about="">
        <dc:format>image/svg+xml</dc:format>
        <dc:type
           rdf:resource="http://purl.org/dc/dcmitype/StillImage" />
        <dc:title></dc:title>
      </cc:Work>
    </rdf:RDF>
  </metadata>
  <defs
     id="defs841" />
  <path
     id="rect872"
     style="fill:#00e6cb;fill-opacity:1;stroke:none;stroke-width:0;stroke-linecap:round;stroke-linejoin:round;stroke-miterlimit:4;stroke-dasharray:none"
     d="m 22.75,57.125 h 82.5 v 48.125 h -82.5 z" />
  <g
     transform="matrix(6.875,0,0,6.875,-4.75,-4.75)"
     id="g835">
    <path
       id="path833"
       clip-rule="evenodd"
       d="M 16.503,3.257 18,7 V 18 H 2 V 7 L 3.497,3.257 A 2,2 0 0 1 5.354,2 h 9.292 a 2,2 0 0 1 1.857,1.257 z M 5.354,4 h 9.292 l 1.2,3 H 4.154 Z M 4,9 v 7 H 16 V 9 h -3 v 4 H 7 V 9 Z m 7,0 v 2 H 9 V 9 Z"
       fill-rule="evenodd" />
  </g>
  <path
     id="rect872-9"
     style="fill:#00e6cb;fill-opacity:1;stroke:none;stroke-width:0;stroke-linecap:round;stroke-linejoin:round;stroke-miterlimit:4;stroke-dasharray:none"
     d="m 32.05875,22.75 h 63.8825 l 8.25,20.625 h -80.3825 z" />
</svg>
